<?xml version="1.0" encoding="iso-8859-1"?>
<!-- Generator: Adobe Illustrator 22.1.0, SVG Export Plug-In . SVG Version: 6.00 Build 0)  -->
<svg xmlns="http://www.w3.org/2000/svg" xmlns:xlink="http://www.w3.org/1999/xlink" version="1.1" id="Layer_1_1_" x="0px" y="0px" viewBox="0 0 64 64" style="enable-background:new 0 0 64 64;" xml:space="preserve" width="512" height="512">
<linearGradient id="SVGID_1_" gradientUnits="userSpaceOnUse" x1="32" y1="63" x2="32" y2="1">
	<stop offset="0" style="stop-color:#8cbc3c"/>
	<stop offset="1" style="stop-color:#8cbc3c"/>
</linearGradient>
<path style="fill:url(#SVGID_1_);" d="M23,7h-8V5h8V7z M27,5h-2v2h2V5z M13,5h-2v2h2V5z M16,59h6v-2h-6V59z M50.553,18.5L63,30.577  v20.837L47.05,35.465C46.106,34.521,44.851,34,43.515,34H39v-2h4.515c1.871,0,3.628,0.729,4.95,2.051L61,46.586V31.423  L49.095,19.872l-8.254,7.769C39.91,28.517,38.692,29,37.414,29H28.5c-0.827,0-1.5,0.673-1.5,1.5s0.673,1.5,1.5,1.5H37v26  c0,2.757-2.243,5-5,5H6c-2.757,0-5-2.243-5-5V6c0-2.757,2.243-5,5-5h26c2.757,0,5,2.243,5,5v8.024  C37.161,14.013,37.322,14,37.485,14H42.3l6.991-6.742C50.133,6.447,51.24,6,52.409,6C54.985,6,57,8.015,57,10.491  c0,1.233-0.515,2.426-1.414,3.271L50.553,18.5z M47.845,11.431l3.539,3.539l2.831-2.665C54.714,11.837,55,11.175,55,10.491  C55,9.118,53.882,8,52.509,8c-0.748,0-1.362,0.248-1.829,0.698L47.845,11.431z M3,6v3h32V6c0-1.654-1.346-3-3-3H6  C4.346,3,3,4.346,3,6z M35,58v-3H3v3c0,1.654,1.346,3,3,3h26C33.654,61,35,59.654,35,58z M35,34h-0.374L33,35.568V51H5V13h28v2.629  c0.602-0.505,1.278-0.895,2-1.169V11H3v42h32V34z M23,27.171c0-1.022,0.398-1.984,1.122-2.707L31,17.586V15H7v34h24V37.496  l-2.485,2.396l-8.971,2.563l2.568-8.989l2.904-2.801c-0.002-0.048-0.014-0.094-0.014-0.143C23.796,29.863,23,28.59,23,27.171z   M22.456,39.544l3.635-1.038l-2.597-2.597L22.456,39.544z M25.795,32.694l-1.368,1.319l3.586,3.586L31.745,34H28.5  C27.405,34,26.438,33.484,25.795,32.694z M28.818,27l11.408-11h-2.741c-1.335,0-2.591,0.52-3.536,1.464l-8.414,8.414  C25.19,26.224,25,26.683,25,27.171c0,0.53,0.246,1.005,0.623,1.344C26.255,27.602,27.307,27,28.5,27H28.818z M49.928,16.342  l-3.522-3.522L31.7,27h5.714c0.768,0,1.498-0.29,2.056-0.815L49.928,16.342z M9,17h12v10H9V17z M11,25h8v-6h-8V25z M9,31h12v-2H9V31  z M19,33H9v2h10V33z M19,37H9v2h10V37z M17,41H9v2h8V41z M9,47h20v-2H9V47z"/>
</svg>
