<svg xmlns="http://www.w3.org/2000/svg" viewBox="0 0 870.27 101.92"><defs><style>.cls-1{fill:#f20530;}.cls-2{fill:#fff;}</style></defs><title>21Asset 4-1004</title><g id="Layer_2" data-name="Layer 2"><g id="Layer_1-2" data-name="Layer 1"><path class="cls-1" d="M56.51,57.22,0,101.92V75.1L30.4,50.78,0,25.39V0L56.51,45.6Z"/><path class="cls-1" d="M845.93,0h24.34L812.48,101.92H788.15Z"/><path class="cls-2" d="M270.48,101.92l-.13-61.15L242.77,91.15H233L205.54,42.08v59.84H185.19V0h17.94l35.08,63.34L272.76,0h17.81l.27,101.92Z"/><path class="cls-2" d="M332.35,18.2H353.5v83.72H332.35Z"/><path class="cls-2" d="M415.23,35.82V55.33H450V72.95H415.23v29H394.07V18.2h60.52V35.82Z"/><path class="cls-2" d="M503.46,36.11H479.23V18.2h69.63V36.11H524.62v65.81H503.46Z"/><path class="cls-2" d="M626.52,85.32h-36l-6.43,16.6H563.59L598.13,18.2H619l34.68,83.72H632.81Zm-6.43-16.6L608.58,38.44,596.93,68.72Z"/><path class="cls-2" d="M682.89,18.2H704v32h31.33v-32h21.16v83.72H735.38V68.72H704v33.2H682.89Z"/><path class="cls-1" d="M68.58,84.59h85V101h-85Z"/></g></g></svg>