<svg width="1440" height="320" xmlns="http://www.w3.org/2000/svg">

 <g>
  <title>background</title>
  <rect fill="none" id="canvas_background" height="402" width="582" y="-1" x="-1"/>
 </g>
 <g>
  <title>Layer 1</title>
  <path stroke="null" id="svg_1" d="m0,21.585613l60,-1.191706c60,-1.281646 180,-3.530147 300,0c120,3.665057 240,13.108763 360,17.988011c120,4.789308 240,4.789308 360,3.597602c120,-1.281646 240,-3.530147 300,-4.811793l60,-1.191706l0,-35.976021l-60,0c-60,0 -180,0 -300,0c-120,0 -240,0 -360,0c-120,0 -240,0 -360,0c-120,0 -240,0 -300,0l-60,0l0,21.585613z" fill="#ffffff"/>
 </g>
</svg>